<svg width="26" height="26" viewBox="0 0 26 26" fill="none" xmlns="http://www.w3.org/2000/svg">
<g clip-path="url(#clip0_76_1033)">
<path d="M22.9144 8.1816C22.7752 8.2896 20.3176 9.6744 20.3176 12.7536C20.3176 16.3152 23.4448 17.5752 23.5384 17.6064C23.524 17.6832 23.0416 19.332 21.8896 21.012C20.8624 22.4904 19.7896 23.9664 18.1576 23.9664C16.5256 23.9664 16.1056 23.0184 14.2216 23.0184C12.3856 23.0184 11.7328 23.9976 10.24 23.9976C8.7472 23.9976 7.7056 22.6296 6.508 20.9496C5.1208 18.9768 4 15.912 4 13.0032C4 8.3376 7.0336 5.8632 10.0192 5.8632C11.6056 5.8632 12.928 6.9048 13.924 6.9048C14.872 6.9048 16.3504 5.8008 18.1552 5.8008C18.8392 5.8008 21.2968 5.8632 22.9144 8.1816ZM17.2984 3.8256C18.0448 2.94 18.5728 1.7112 18.5728 0.4824C18.5728 0.312 18.5584 0.1392 18.5272 0C17.3128 0.0456 15.868 0.8088 14.9968 1.8192C14.3128 2.5968 13.6744 3.8256 13.6744 5.0712C13.6744 5.2584 13.7056 5.4456 13.72 5.5056C13.7968 5.52 13.9216 5.5368 14.0464 5.5368C15.136 5.5368 16.5064 4.8072 17.2984 3.8256Z" fill="black"/>
</g>
<defs>
<clipPath id="clip0_76_1033">
<rect width="19.536" height="24" fill="white" transform="translate(4)"/>
</clipPath>
</defs>
</svg>
